<svg id="Layer_1" data-name="Layer 1" xmlns="http://www.w3.org/2000/svg" xmlns:xlink="http://www.w3.org/1999/xlink" width="405.3" height="66.58" viewBox="0 0 405.3 66.58">
  <defs>
    <style>
      .cls-1, .cls-3 {
        fill: #fff;
      }

      .cls-1, .cls-2, .cls-3, .cls-5, .cls-6, .cls-7, .cls-8 {
        stroke: #666;
      }

      .cls-1, .cls-2, .cls-3, .cls-4, .cls-5, .cls-6, .cls-7 {
        stroke-miterlimit: 10;
      }

      .cls-1, .cls-7, .cls-8 {
        stroke-width: 2px;
      }

      .cls-2, .cls-6 {
        fill: aqua;
      }

      .cls-4 {
        stroke-width: 4px;
        fill: url(#Blue_Sky);
        stroke: url(#linear-gradient);
      }

      .cls-5 {
        fill: #666;
        stroke-width: 0.5px;
      }

      .cls-6 {
        opacity: 0;
      }

      .cls-7, .cls-8 {
        fill: none;
      }

      .cls-8 {
        stroke-linecap: round;
        stroke-linejoin: bevel;
      }
    </style>
    <linearGradient id="Blue_Sky" data-name="Blue Sky" y1="35.12" x2="59.4" y2="35.12" gradientUnits="userSpaceOnUse">
      <stop offset="0" stop-color="#3ddeed"/>
      <stop offset="1" stop-color="#3ddeed" stop-opacity="0"/>
    </linearGradient>
    <linearGradient id="linear-gradient" y1="35.12" x2="59.4" y2="35.12" gradientUnits="userSpaceOnUse">
      <stop offset="0" stop-color="#fff"/>
      <stop offset="1" stop-color="#353535"/>
    </linearGradient>
  </defs>
  <title>Confirm</title>
  <rect class="cls-1" x="99.11" y="6.3" width="207.08" height="59.28" rx="3" ry="3"/>
  <rect class="cls-2" x="134.84" y="20.21" width="135.61" height="31.46"/>
  <path class="cls-3" d="M61.39,25.29H99.11a0,0,0,0,1,0,0V44.95a0,0,0,0,1,0,0H61.39a2,2,0,0,1-2-2V27.29A2,2,0,0,1,61.39,25.29Z"/>
  <line class="cls-4" y1="35.12" x2="59.4" y2="35.12"/>
  <g>
    <path class="cls-5" d="M232.94,246.88a3.52,3.52,0,0,1,0-4.32,2.63,2.63,0,0,1,2-.79,2.74,2.74,0,0,1,1.67.51,2,2,0,0,1,.84,1.32h-.79a1.5,1.5,0,0,0-.62-.86,1.92,1.92,0,0,0-1.1-.32,1.77,1.77,0,0,0-1.42.62,3,3,0,0,0,0,3.36,1.75,1.75,0,0,0,1.42.62,2.08,2.08,0,0,0,1.11-.28,1.33,1.33,0,0,0,.61-.77h.79a2,2,0,0,1-.84,1.24,2.88,2.88,0,0,1-1.67.46A2.59,2.59,0,0,1,232.94,246.88Z" transform="translate(-47.39 -216.68)"/>
    <path class="cls-5" d="M239.65,247a2.52,2.52,0,0,1,0-3.19,2.39,2.39,0,0,1,3.12,0,2.48,2.48,0,0,1,0,3.19,2.39,2.39,0,0,1-3.12,0Zm2.58-.43a2.11,2.11,0,0,0,0-2.33,1.3,1.3,0,0,0-1-.41,1.27,1.27,0,0,0-1,.41,2.07,2.07,0,0,0,0,2.33,1.27,1.27,0,0,0,1,.41A1.3,1.3,0,0,0,242.23,246.6Z" transform="translate(-47.39 -216.68)"/>
    <path class="cls-5" d="M245.17,247.54v-4.21h.7V244h.07a1.29,1.29,0,0,1,.52-.54,1.75,1.75,0,0,1,.87-.19,1.67,1.67,0,0,1,1.21.4,1.55,1.55,0,0,1,.41,1.15v2.73h-.73V245a1.19,1.19,0,0,0-.27-.85,1.14,1.14,0,0,0-.83-.27,1.22,1.22,0,0,0-.88.32,1.15,1.15,0,0,0-.33.87v2.49Z" transform="translate(-47.39 -216.68)"/>
    <path class="cls-5" d="M251.27,247.54v-3.65h-.77v-.56h.77v-.47a1.2,1.2,0,0,1,.34-.93,1.45,1.45,0,0,1,1-.31h.26l.24,0v.54h-.35a.79.79,0,0,0-.58.17.7.7,0,0,0-.18.52v.45h1.06v.56H252v3.65Z" transform="translate(-47.39 -216.68)"/>
    <path class="cls-5" d="M254.83,242.38a.44.44,0,0,1,0-.66.52.52,0,0,1,.36-.14.53.53,0,0,1,.37.14.44.44,0,0,1,0,.66.53.53,0,0,1-.37.14A.52.52,0,0,1,254.83,242.38Zm0,5.16v-4.21h.74v4.21Z" transform="translate(-47.39 -216.68)"/>
    <path class="cls-5" d="M257.63,247.54v-4.21h.71V244h.07a.92.92,0,0,1,.46-.5,1.68,1.68,0,0,1,.82-.19h.37V244l-.2,0h-.27a1.27,1.27,0,0,0-.87.29.9.9,0,0,0-.35.73v2.61Z" transform="translate(-47.39 -216.68)"/>
    <path class="cls-5" d="M261.64,247.54v-4.21h.71V244h.07a1.16,1.16,0,0,1,.49-.54,1.58,1.58,0,0,1,.8-.19,1.44,1.44,0,0,1,.8.2,1.29,1.29,0,0,1,.48.53h.07a1.43,1.43,0,0,1,.56-.53,1.73,1.73,0,0,1,.86-.2,1.52,1.52,0,0,1,1.09.35,1.31,1.31,0,0,1,.38,1v2.91h-.74v-2.75a.93.93,0,0,0-.24-.7,1,1,0,0,0-.73-.23,1.09,1.09,0,0,0-.78.29.9.9,0,0,0-.3.68v2.71h-.74v-2.86a.73.73,0,0,0-.26-.6,1.1,1.1,0,0,0-.7-.22,1.06,1.06,0,0,0-1.08,1.07v2.61Z" transform="translate(-47.39 -216.68)"/>
  </g>
  <path class="cls-3" d="M125.8.5h21.05a2,2,0,0,1,2,2V6.3a0,0,0,0,1,0,0H123.8a0,0,0,0,1,0,0V2.5A2,2,0,0,1,125.8.5Z"/>
  <path class="cls-3" d="M259.06.5h21.05a2,2,0,0,1,2,2V6.3a0,0,0,0,1,0,0H257.06a0,0,0,0,1,0,0V2.5a2,2,0,0,1,2-2Z"/>
  <g>
    <path class="cls-5" d="M220.14,262.34h-1.06v-7.58h-2.75v-1h6.57v1h-2.76Z" transform="translate(-47.39 -216.68)"/>
    <path class="cls-5" d="M224.41,262.34V256h1v1h.1a1.32,1.32,0,0,1,.64-.77,2.21,2.21,0,0,1,1.13-.29h.27l.24,0v1a1,1,0,0,0-.28,0,2.69,2.69,0,0,0-.38,0,1.68,1.68,0,0,0-1.2.44,1.46,1.46,0,0,0-.47,1.11v3.95Z" transform="translate(-47.39 -216.68)"/>
    <path class="cls-5" d="M229.26,261.94a1.7,1.7,0,0,1-.61-1.39c0-1.16.77-1.79,2.33-1.88l1.84-.12V258a1.14,1.14,0,0,0-.37-.9,1.6,1.6,0,0,0-1.08-.32,1.94,1.94,0,0,0-1,.21,1,1,0,0,0-.49.59h-1a1.7,1.7,0,0,1,.8-1.24,3,3,0,0,1,1.71-.46,2.63,2.63,0,0,1,1.79.56,2,2,0,0,1,.63,1.56v4.37h-1v-.94h-.09a2.12,2.12,0,0,1-.82.78,2.41,2.41,0,0,1-1.15.27A2.33,2.33,0,0,1,229.26,261.94Zm3-.84a1.46,1.46,0,0,0,.52-1.14v-.58l-1.72.11c-.93.06-1.4.41-1.4,1a.89.89,0,0,0,.37.76,1.5,1.5,0,0,0,.92.27A1.89,1.89,0,0,0,232.3,261.1Z" transform="translate(-47.39 -216.68)"/>
    <path class="cls-5" d="M235.72,262.34V256h1v1h.09a1.92,1.92,0,0,1,.71-.83,2.33,2.33,0,0,1,1.21-.29,2.14,2.14,0,0,1,1.65.61,2.43,2.43,0,0,1,.58,1.75v4.13h-1v-3.88a1.86,1.86,0,0,0-.37-1.28,1.41,1.41,0,0,0-1.13-.41,1.6,1.6,0,0,0-1.22.48,1.84,1.84,0,0,0-.46,1.32v3.77Z" transform="translate(-47.39 -216.68)"/>
    <path class="cls-5" d="M243.32,256.38a2.71,2.71,0,0,1,1.7-.53,2.8,2.8,0,0,1,1.66.46,1.71,1.71,0,0,1,.74,1.25h-1a1,1,0,0,0-.46-.62,1.77,1.77,0,0,0-.94-.23,1.65,1.65,0,0,0-1,.27.79.79,0,0,0-.39.69.68.68,0,0,0,.27.54,2.24,2.24,0,0,0,.83.35l1,.24a2.93,2.93,0,0,1,1.35.63,1.43,1.43,0,0,1,.44,1.09,1.66,1.66,0,0,1-.74,1.4,3.44,3.44,0,0,1-3.57.06,1.69,1.69,0,0,1-.76-1.27h1.05a1.12,1.12,0,0,0,.51.65,1.81,1.81,0,0,0,1,.24,1.88,1.88,0,0,0,1-.28.85.85,0,0,0,.42-.72.73.73,0,0,0-.25-.55,1.86,1.86,0,0,0-.76-.35l-1.1-.26a3,3,0,0,1-1.32-.63,1.46,1.46,0,0,1-.42-1.1A1.64,1.64,0,0,1,243.32,256.38Z" transform="translate(-47.39 -216.68)"/>
    <path class="cls-5" d="M249.37,261.94a1.7,1.7,0,0,1-.61-1.39c0-1.16.77-1.79,2.32-1.88l1.84-.12V258a1.13,1.13,0,0,0-.36-.9,1.6,1.6,0,0,0-1.08-.32,1.94,1.94,0,0,0-.95.21.92.92,0,0,0-.49.59h-1a1.71,1.71,0,0,1,.79-1.24,3,3,0,0,1,1.71-.46,2.64,2.64,0,0,1,1.8.56,2,2,0,0,1,.63,1.56v4.37h-1v-.94h-.09a2.12,2.12,0,0,1-.82.78,2.41,2.41,0,0,1-1.15.27A2.33,2.33,0,0,1,249.37,261.94Zm3-.84a1.45,1.45,0,0,0,.51-1.14v-.58l-1.71.11c-.94.06-1.4.41-1.4,1a.89.89,0,0,0,.37.76,1.5,1.5,0,0,0,.92.27A1.91,1.91,0,0,0,252.41,261.1Z" transform="translate(-47.39 -216.68)"/>
    <path class="cls-5" d="M261.1,257.91h-1a1.54,1.54,0,0,0-.54-.81,1.74,1.74,0,0,0-1.1-.33,1.66,1.66,0,0,0-1.37.64,2.73,2.73,0,0,0-.5,1.72,2.79,2.79,0,0,0,.51,1.76,1.65,1.65,0,0,0,1.36.65,1.87,1.87,0,0,0,1.07-.29,1.37,1.37,0,0,0,.57-.83h1a2.25,2.25,0,0,1-.83,1.45,2.74,2.74,0,0,1-1.84.58,2.7,2.7,0,0,1-2.13-.9,3.53,3.53,0,0,1-.8-2.42,3.47,3.47,0,0,1,.8-2.39,2.73,2.73,0,0,1,2.13-.89,2.66,2.66,0,0,1,1.85.61A2.33,2.33,0,0,1,261.1,257.91Z" transform="translate(-47.39 -216.68)"/>
    <path class="cls-5" d="M263,254.31h1V256h1.42v.85h-1.42v3.61a1.17,1.17,0,0,0,.23.82.92.92,0,0,0,.72.26h.23l.24,0v.86l-.3,0-.3,0a2,2,0,0,1-1.41-.4,1.73,1.73,0,0,1-.43-1.31v-3.87h-1V256h1Z" transform="translate(-47.39 -216.68)"/>
    <path class="cls-5" d="M267,254.52a.69.69,0,0,1-.21-.5.66.66,0,0,1,.21-.5.67.67,0,0,1,.5-.21.69.69,0,0,1,.51.21.69.69,0,0,1,.2.5.72.72,0,0,1-.2.5.69.69,0,0,1-.51.21A.67.67,0,0,1,267,254.52Zm0,7.82V256h1v6.38Z" transform="translate(-47.39 -216.68)"/>
    <path class="cls-5" d="M270.46,261.57a4.1,4.1,0,0,1,0-4.84,3.08,3.08,0,0,1,4.31,0,4.1,4.1,0,0,1,0,4.84,3.08,3.08,0,0,1-4.31,0Zm3.55-.66a3.41,3.41,0,0,0,0-3.52,1.88,1.88,0,0,0-2.79,0,3.41,3.41,0,0,0,0,3.52,1.86,1.86,0,0,0,2.79,0Z" transform="translate(-47.39 -216.68)"/>
    <path class="cls-5" d="M277.16,262.34V256h1v1h.09a1.92,1.92,0,0,1,.71-.83,2.33,2.33,0,0,1,1.21-.29,2.14,2.14,0,0,1,1.65.61,2.43,2.43,0,0,1,.58,1.75v4.13h-1v-3.88a1.86,1.86,0,0,0-.37-1.28,1.41,1.41,0,0,0-1.13-.41,1.6,1.6,0,0,0-1.22.48,1.84,1.84,0,0,0-.46,1.32v3.77Z" transform="translate(-47.39 -216.68)"/>
  </g>
  <polyline class="cls-6" points="405.3 65.58 307.82 65.58 307.82 47.46 405.3 47.46"/>
  <g>
    <line class="cls-7" x1="140.47" y1="33.63" x2="145.39" y2="38.25"/>
    <line class="cls-7" x1="145.17" y1="33.32" x2="140.64" y2="38.27"/>
  </g>
  <g>
    <line class="cls-8" x1="259.38" y1="34.99" x2="262.03" y2="38.64"/>
    <line class="cls-8" x1="265.93" y1="33.23" x2="262.03" y2="38.64"/>
  </g>
</svg>
