<svg xmlns="http://www.w3.org/2000/svg" xmlns:xlink="http://www.w3.org/1999/xlink" width="404.65" height="67.29" viewBox="0 0 404.65 67.29">
  <defs>
    <style>
      .cls-1, .cls-2 {
        fill: transparent;
      }

      .cls-1, .cls-10, .cls-2, .cls-4, .cls-5, .cls-8 {
        stroke: rgb(195,195,195);
      }

      .cls-6, .cls-7 {
        stroke: #ff6188;
      }

      .cls-1, .cls-10, .cls-2, .cls-3, .cls-4, .cls-5, .cls-6, .cls-7, .cls-9 {
        stroke-miterlimit: 10;
      }

      .cls-1, .cls-7, .cls-8 {
        stroke-width: 2px;
      }

      .cls-3 {
        stroke-width: 4px;
        fill: url(#Blue_Sky);
        stroke: url(#linear-gradient);
      }

      .cls-4 {
        fill: aqua;
        opacity: 0;
      }

      .cls-5 {
        fill: rgb(39, 49, 54);
        isolation: isolate;
      }

      .cls-6 {
        fill: #ff6188;
        stroke-width: 0.5px;
      }

      .cls-7, .cls-8 {
        fill: none;
      }

      .cls-8 {
        stroke-linecap: round;
        stroke-linejoin: bevel;
      }

      .cls-9 {
        fill: url(#linear-gradient-2);
        stroke: url(#linear-gradient-3);
      }

      .cls-10 {
        fill: rgb(39, 49, 54);
      }
    </style>
    <linearGradient id="Blue_Sky" data-name="Blue Sky" y1="35.12" x2="59.4" y2="35.12" gradientUnits="userSpaceOnUse">
      <stop offset="0" stop-color="#3ddeed"/>
      <stop offset="1" stop-color="#3ddeed" stop-opacity="0"/>
    </linearGradient>
    <linearGradient id="linear-gradient" y1="35.12" x2="59.4" y2="35.12" gradientUnits="userSpaceOnUse">
      <stop offset="0" stop-color="#273138"/>
      <stop offset="1" stop-color="#fff"/>
    </linearGradient>
    <linearGradient id="linear-gradient-2" x1="273" y1="35.94" x2="380.39" y2="35.94" gradientUnits="userSpaceOnUse">
      <stop offset="0" stop-color="#ccc"/>
      <stop offset="0.32" stop-color="#ccc" stop-opacity="0.99"/>
      <stop offset="0.46" stop-color="#ccc" stop-opacity="0.96"/>
      <stop offset="0.56" stop-color="#ccc" stop-opacity="0.92"/>
      <stop offset="0.65" stop-color="#ccc" stop-opacity="0.85"/>
      <stop offset="0.72" stop-color="#ccc" stop-opacity="0.76"/>
      <stop offset="0.79" stop-color="#ccc" stop-opacity="0.64"/>
      <stop offset="0.85" stop-color="#ccc" stop-opacity="0.51"/>
      <stop offset="0.9" stop-color="#ccc" stop-opacity="0.36"/>
      <stop offset="0.95" stop-color="#ccc" stop-opacity="0.19"/>
      <stop offset="1" stop-color="#ccc" stop-opacity="0"/>
    </linearGradient>
    <linearGradient id="linear-gradient-3" x1="272.5" y1="35.94" x2="380.89" y2="35.94" gradientUnits="userSpaceOnUse">
      <stop offset="0" stop-color="#666"/>
      <stop offset="0.17" stop-color="#767676" stop-opacity="0.9"/>
      <stop offset="0.47" stop-color="#a0a0a0" stop-opacity="0.62"/>
      <stop offset="0.86" stop-color="#e5e5e5" stop-opacity="0.17"/>
      <stop offset="1" stop-color="#fff" stop-opacity="0"/>
    </linearGradient>
  </defs>
  <title>Confirm_TX</title>
  <g id="Layer_1" data-name="Layer 1">
    <rect class="cls-1" x="99.11" y="6.3" width="207.08" height="59.28" rx="3" ry="3"/>
    <path class="cls-2" d="M61.39,25.29H99.11a0,0,0,0,1,0,0V44.95a0,0,0,0,1,0,0H61.39a2,2,0,0,1-2-2V27.29A2,2,0,0,1,61.39,25.29Z"/>
    <line class="cls-3" y1="35.12" x2="59.4" y2="35.12"/>
    <path class="cls-2" d="M125.8.5h21.05a2,2,0,0,1,2,2V6.3a0,0,0,0,1,0,0H123.8a0,0,0,0,1,0,0V2.5A2,2,0,0,1,125.8.5Z"/>
    <path class="cls-2" d="M259.06.5h21.05a2,2,0,0,1,2,2V6.3a0,0,0,0,1,0,0H257.06a0,0,0,0,1,0,0V2.5a2,2,0,0,1,2-2Z"/>
    <polyline class="cls-4" points="404.65 65.58 307.18 65.58 307.18 47.46 404.65 47.46"/>
    <g>
      <rect class="cls-5" x="134.54" y="20.07" width="135.61" height="31.46"/>
      <g>
        <path class="cls-6" d="M270.28,49.2a3.51,3.51,0,0,1,0-4.32,2.66,2.66,0,0,1,2-.79,2.84,2.84,0,0,1,1.67.51,2,2,0,0,1,.84,1.32H274a1.46,1.46,0,0,0-.62-.86,2,2,0,0,0-1.1-.32,1.79,1.79,0,0,0-1.42.62,3,3,0,0,0,0,3.36,1.73,1.73,0,0,0,1.42.62,2,2,0,0,0,1.11-.28,1.3,1.3,0,0,0,.61-.77h.79a2,2,0,0,1-.84,1.24,2.91,2.91,0,0,1-1.67.46A2.59,2.59,0,0,1,270.28,49.2Z" transform="translate(-85.03 -19.15)"/>
        <path class="cls-6" d="M277,49.32a2.52,2.52,0,0,1,0-3.19,2.4,2.4,0,0,1,3.12,0,2.47,2.47,0,0,1,0,3.19A2.37,2.37,0,0,1,277,49.32Zm2.58-.43a2.1,2.1,0,0,0,0-2.33,1.34,1.34,0,0,0-1-.41,1.27,1.27,0,0,0-1,.41,2.07,2.07,0,0,0,0,2.33,1.46,1.46,0,0,0,2,0Z" transform="translate(-85.03 -19.15)"/>
        <path class="cls-6" d="M282.51,49.86V45.65h.7v.67h.07a1.42,1.42,0,0,1,.52-.54,1.87,1.87,0,0,1,.87-.19,1.66,1.66,0,0,1,1.21.4,1.53,1.53,0,0,1,.41,1.15v2.73h-.73V47.32a1.21,1.21,0,0,0-.27-.85,1.19,1.19,0,0,0-.83-.27,1.25,1.25,0,0,0-.88.32,1.14,1.14,0,0,0-.33.87v2.49Z" transform="translate(-85.03 -19.15)"/>
        <path class="cls-6" d="M288.61,49.86V46.21h-.77v-.56h.77v-.47a1.24,1.24,0,0,1,.34-.93,1.49,1.49,0,0,1,1-.31h.5v.54h-.35a.8.8,0,0,0-.58.17.71.71,0,0,0-.18.52v.45h1.06v.56h-1.06v3.65Z" transform="translate(-85.03 -19.15)"/>
        <path class="cls-6" d="M292.17,44.7a.44.44,0,0,1,0-.62s0,0,0,0a.54.54,0,0,1,.36-.14.55.55,0,0,1,.37.14.44.44,0,0,1,0,.62s0,0,0,0a.47.47,0,0,1-.37.14A.54.54,0,0,1,292.17,44.7Zm0,5.16V45.65h.74v4.21Z" transform="translate(-85.03 -19.15)"/>
        <path class="cls-6" d="M295,49.86V45.65h.71v.67h.07a.9.9,0,0,1,.46-.5,1.8,1.8,0,0,1,.82-.19h.37v.69h-.47a1.31,1.31,0,0,0-.87.29,1,1,0,0,0-.35.73V50Z" transform="translate(-85.03 -19.15)"/>
        <path class="cls-6" d="M299,49.86V45.65h.71v.67h.07a1.16,1.16,0,0,1,.49-.54,1.6,1.6,0,0,1,.8-.19,1.49,1.49,0,0,1,.8.2,1.29,1.29,0,0,1,.48.53h.07a1.5,1.5,0,0,1,.56-.53,1.73,1.73,0,0,1,.86-.2,1.53,1.53,0,0,1,1.09.35,1.34,1.34,0,0,1,.38,1v2.91h-.74V47.1a1,1,0,0,0-.24-.7,1,1,0,0,0-.73-.23,1.11,1.11,0,0,0-.78.29.93.93,0,0,0-.3.68v2.71h-.74V47a.73.73,0,0,0-.26-.6,1.1,1.1,0,0,0-.7-.22,1.07,1.07,0,0,0-1.08,1v2.64Z" transform="translate(-85.03 -19.15)"/>
      </g>
      <g>
        <path class="cls-6" d="M257.48,64.66h-1.06V57.08h-2.75v-1h6.57v1h-2.76Z" transform="translate(-85.03 -19.15)"/>
        <path class="cls-6" d="M261.75,64.66V58.32h1v1h.1a1.35,1.35,0,0,1,.64-.77,2.35,2.35,0,0,1,1.13-.29h.51v1h-.66a1.72,1.72,0,0,0-1.2.44,1.47,1.47,0,0,0-.47,1.11v4Z" transform="translate(-85.03 -19.15)"/>
        <path class="cls-6" d="M266.6,64.26a1.68,1.68,0,0,1-.61-1.39c0-1.16.77-1.79,2.33-1.88l1.84-.12v-.55a1.14,1.14,0,0,0-.37-.9,1.66,1.66,0,0,0-1.08-.32,1.92,1.92,0,0,0-1,.21,1.06,1.06,0,0,0-.49.59h-1a1.73,1.73,0,0,1,.8-1.24,3,3,0,0,1,1.71-.46,2.63,2.63,0,0,1,1.79.56,2,2,0,0,1,.63,1.56v4.37h-1v-.94h-.09a2.12,2.12,0,0,1-.82.78,2.3,2.3,0,0,1-1.15.27A2.33,2.33,0,0,1,266.6,64.26Zm3-.84a1.43,1.43,0,0,0,.52-1.14V61.7l-1.72.11c-.93.06-1.4.41-1.4,1a.9.9,0,0,0,.37.76,1.44,1.44,0,0,0,.92.27,1.88,1.88,0,0,0,1.35-.42Z" transform="translate(-85.03 -19.15)"/>
        <path class="cls-6" d="M273.06,64.66V58.32h1v1h.09a1.91,1.91,0,0,1,.71-.83,2.43,2.43,0,0,1,1.21-.29,2.16,2.16,0,0,1,1.65.61,2.4,2.4,0,0,1,.58,1.75v4.13h-1V60.81a1.86,1.86,0,0,0-.37-1.28,1.4,1.4,0,0,0-1.13-.41,1.63,1.63,0,0,0-1.22.48,1.84,1.84,0,0,0-.46,1.32v3.77Z" transform="translate(-85.03 -19.15)"/>
        <path class="cls-6" d="M280.66,58.7a2.73,2.73,0,0,1,1.7-.53,2.86,2.86,0,0,1,1.66.46,1.73,1.73,0,0,1,.74,1.25h-1a1,1,0,0,0-.46-.62,1.8,1.8,0,0,0-.94-.23,1.7,1.7,0,0,0-1,.27A.82.82,0,0,0,281,60a.67.67,0,0,0,.27.54,2.26,2.26,0,0,0,.83.35l1,.24a3,3,0,0,1,1.35.63,1.41,1.41,0,0,1,.44,1.09,1.65,1.65,0,0,1-.74,1.4,3.42,3.42,0,0,1-3.57.06,1.71,1.71,0,0,1-.76-1.27h1a1.07,1.07,0,0,0,.51.65,1.75,1.75,0,0,0,1,.24,1.78,1.78,0,0,0,1-.28.83.83,0,0,0,.42-.72.73.73,0,0,0-.25-.55,1.89,1.89,0,0,0-.76-.35l-1.1-.26a3,3,0,0,1-1.32-.63,1.45,1.45,0,0,1-.42-1.1A1.63,1.63,0,0,1,280.66,58.7Z" transform="translate(-85.03 -19.15)"/>
        <path class="cls-6" d="M286.71,64.26a1.68,1.68,0,0,1-.61-1.39c0-1.16.77-1.79,2.32-1.88l1.84-.12v-.55a1.13,1.13,0,0,0-.36-.9,1.66,1.66,0,0,0-1.08-.32,1.94,1.94,0,0,0-.95.21.93.93,0,0,0-.49.59h-1a1.71,1.71,0,0,1,.79-1.24,3,3,0,0,1,1.71-.46,2.65,2.65,0,0,1,1.8.56,2,2,0,0,1,.63,1.56v4.37h-1v-.94h-.09a2.12,2.12,0,0,1-.82.78,2.3,2.3,0,0,1-1.15.27A2.34,2.34,0,0,1,286.71,64.26Zm3-.84a1.45,1.45,0,0,0,.51-1.14V61.7l-1.71.11c-.94.06-1.4.41-1.4,1a.9.9,0,0,0,.37.76,1.44,1.44,0,0,0,.92.27,1.88,1.88,0,0,0,1.35-.42Z" transform="translate(-85.03 -19.15)"/>
        <path class="cls-6" d="M298.44,60.23h-1a1.6,1.6,0,0,0-.54-.81,1.81,1.81,0,0,0-1.1-.33,1.67,1.67,0,0,0-1.37.64,2.78,2.78,0,0,0-.5,1.72,2.82,2.82,0,0,0,.51,1.76,1.62,1.62,0,0,0,1.36.65,1.77,1.77,0,0,0,1.07-.29,1.36,1.36,0,0,0,.57-.83h1a2.27,2.27,0,0,1-.83,1.45,2.72,2.72,0,0,1-1.84.58,2.66,2.66,0,0,1-2.13-.9,3.54,3.54,0,0,1-.8-2.42,3.47,3.47,0,0,1,.8-2.39,2.75,2.75,0,0,1,2.13-.89,2.66,2.66,0,0,1,1.85.61A2.32,2.32,0,0,1,298.44,60.23Z" transform="translate(-85.03 -19.15)"/>
        <path class="cls-6" d="M300.34,56.63h1v1.69h1.42v.85h-1.42v3.61a1.13,1.13,0,0,0,.23.82.91.91,0,0,0,.72.26h.47v.86h-.6a2,2,0,0,1-1.41-.4,1.74,1.74,0,0,1-.43-1.31V59.14h-1v-.82h1Z" transform="translate(-85.03 -19.15)"/>
        <path class="cls-6" d="M304.34,56.84a.71.71,0,0,1-.21-.5.67.67,0,0,1,.21-.5.71.71,0,0,1,.5-.21.7.7,0,0,1,.71.71.7.7,0,0,1-.2.5.66.66,0,0,1-.51.21A.64.64,0,0,1,304.34,56.84Zm0,7.82V58.32h1V64.7Z" transform="translate(-85.03 -19.15)"/>
        <path class="cls-6" d="M307.8,63.89a4.11,4.11,0,0,1,0-4.84,3.08,3.08,0,0,1,4.31,0,4.11,4.11,0,0,1,0,4.84A3.07,3.07,0,0,1,307.8,63.89Zm3.55-.66a3.42,3.42,0,0,0,0-3.52,1.87,1.87,0,0,0-2.65-.13l-.14.13a3.42,3.42,0,0,0,0,3.52,1.87,1.87,0,0,0,2.63.17Z" transform="translate(-85.03 -19.15)"/>
        <path class="cls-6" d="M314.5,64.66V58.32h1v1h.09a1.91,1.91,0,0,1,.71-.83,2.43,2.43,0,0,1,1.21-.29,2.16,2.16,0,0,1,1.65.61,2.4,2.4,0,0,1,.58,1.75v4.13h-1V60.81a1.86,1.86,0,0,0-.37-1.28,1.4,1.4,0,0,0-1.13-.41,1.63,1.63,0,0,0-1.22.48,1.84,1.84,0,0,0-.46,1.32v3.77Z" transform="translate(-85.03 -19.15)"/>
      </g>
      <g>
        <line class="cls-7" x1="140.17" y1="33.49" x2="145.09" y2="38.11"/>
        <line class="cls-7" x1="144.87" y1="33.18" x2="140.34" y2="38.13"/>
      </g>
      <g>
        <line class="cls-7" x1="259.08" y1="34.85" x2="261.73" y2="38.5"/>
        <line class="cls-7" x1="265.63" y1="33.09" x2="261.73" y2="38.5"/>
      </g>
    </g>
  </g>
  <g id="Layer_3" data-name="Layer 3">
    <g>
      <path class="cls-9" d="M303,5.09h77.39a0,0,0,0,1,0,0v61.7a0,0,0,0,1,0,0H303a30,30,0,0,1-30-30v-1.7a30,30,0,0,1,30-30Z"/>
      <rect class="cls-10" x="285.53" y="20.03" width="31.53" height="31.53" rx="15.77" ry="15.77"/>
    </g>
  </g>
</svg>
