<svg id="Layer_1" data-name="Layer 1" xmlns="http://www.w3.org/2000/svg" xmlns:xlink="http://www.w3.org/1999/xlink" width="404.96" height="66.58" viewBox="0 0 404.96 66.58">
  <defs>
    <style>
      .cls-1, .cls-2 {
        fill: #fff;
      }

      .cls-1, .cls-2, .cls-4, .cls-5, .cls-6, .cls-7 {
        stroke: #666;
      }

      .cls-1, .cls-2, .cls-3, .cls-4, .cls-6, .cls-7 {
        stroke-miterlimit: 10;
      }

      .cls-1 {
        stroke-width: 2px;
      }

      .cls-3 {
        stroke-width: 4px;
        fill: url(#Blue_Sky);
        stroke: url(#linear-gradient);
      }

      .cls-4, .cls-5 {
        fill: #666;
      }

      .cls-4 {
        stroke-width: 0.25px;
      }

      .cls-5 {
        stroke-linecap: round;
        stroke-linejoin: round;
        stroke-width: 0.5px;
      }

      .cls-6, .cls-7 {
        fill: aqua;
      }

      .cls-7 {
        opacity: 0;
      }
    </style>
    <linearGradient id="Blue_Sky" data-name="Blue Sky" y1="35.12" x2="59.4" y2="35.12" gradientUnits="userSpaceOnUse">
      <stop offset="0" stop-color="#3ddeed"/>
      <stop offset="1" stop-color="#3ddeed" stop-opacity="0"/>
    </linearGradient>
    <linearGradient id="linear-gradient" y1="35.12" x2="59.4" y2="35.12" gradientUnits="userSpaceOnUse">
      <stop offset="0" stop-color="#fff"/>
      <stop offset="1" stop-color="#353535"/>
    </linearGradient>
  </defs>
  <title>CHoose</title>
  <rect class="cls-1" x="99.11" y="6.3" width="207.08" height="59.28" rx="3" ry="3"/>
  <rect class="cls-2" x="134.84" y="20.21" width="135.61" height="31.46"/>
  <path class="cls-2" d="M61.39,25.29H99.11a0,0,0,0,1,0,0V44.95a0,0,0,0,1,0,0H61.39a2,2,0,0,1-2-2V27.29A2,2,0,0,1,61.39,25.29Z"/>
  <line class="cls-3" y1="35.12" x2="59.4" y2="35.12"/>
  <g>
    <path class="cls-4" d="M246.48,261.8v.63h-3.84V256.8h3.84v.63h-3.06v1.81h2.9v.62h-2.9v1.94Z" transform="translate(-47.73 -217.49)"/>
    <path class="cls-4" d="M252.22,257.46a3,3,0,0,1,.76,2.15,3,3,0,0,1-.76,2.16,3.12,3.12,0,0,1-4.17,0,3,3,0,0,1-.76-2.16,3,3,0,0,1,.77-2.15,3.1,3.1,0,0,1,4.16,0Zm-3.58.47a2.45,2.45,0,0,0-.55,1.68,2.49,2.49,0,0,0,.54,1.68,1.88,1.88,0,0,0,1.51.63,1.9,1.9,0,0,0,1.5-.63,2.5,2.5,0,0,0,.55-1.68,2.45,2.45,0,0,0-.56-1.68,1.89,1.89,0,0,0-1.49-.62A1.92,1.92,0,0,0,248.64,257.93Z" transform="translate(-47.73 -217.49)"/>
    <path class="cls-4" d="M253.67,261h.78a1,1,0,0,0,.51.7,2,2,0,0,0,1.09.27,1.87,1.87,0,0,0,1-.28.81.81,0,0,0,.41-.69.74.74,0,0,0-.3-.6,2.31,2.31,0,0,0-.95-.38l-.79-.19a2.62,2.62,0,0,1-1.22-.56,1.24,1.24,0,0,1-.39-1,1.35,1.35,0,0,1,.61-1.16,2.57,2.57,0,0,1,1.58-.45,2.54,2.54,0,0,1,1.51.44,1.47,1.47,0,0,1,.65,1.12h-.78a1,1,0,0,0-.45-.68,1.72,1.72,0,0,0-1-.24,1.77,1.77,0,0,0-1,.26.79.79,0,0,0-.37.69.65.65,0,0,0,.27.54,2.89,2.89,0,0,0,.92.35l.65.16a3.2,3.2,0,0,1,1.38.58,1.26,1.26,0,0,1,.42,1,1.48,1.48,0,0,1-.62,1.24,2.85,2.85,0,0,1-1.69.46,2.79,2.79,0,0,1-1.62-.44A1.51,1.51,0,0,1,253.67,261Z" transform="translate(-47.73 -217.49)"/>
  </g>
  <path class="cls-5" d="M250.2,242.45,247,246.5l-1.37,5.95L250.2,255l4.6-2.53-1.37-6Zm-2.49,4.15,2.49-3.1,2.49,3.1-2.49,6.82Zm5.32,1,1,4.54L250.68,254Zm-6.7,4.54,1-4.54,2.35,6.4Z" transform="translate(-47.73 -217.49)"/>
  <path class="cls-6" d="M125.8.5h21.05a2,2,0,0,1,2,2V6.3a0,0,0,0,1,0,0H123.8a0,0,0,0,1,0,0V2.5A2,2,0,0,1,125.8.5Z"/>
  <path class="cls-6" d="M259.06.5h21.05a2,2,0,0,1,2,2V6.3a0,0,0,0,1,0,0H257.06a0,0,0,0,1,0,0V2.5A2,2,0,0,1,259.06.5Z"/>
  <polyline class="cls-7" points="404.96 63.58 307.48 63.58 307.48 45.46 404.96 45.46"/>
</svg>
