<svg xmlns="http://www.w3.org/2000/svg" xmlns:xlink="http://www.w3.org/1999/xlink" width="405.46" height="67.29" viewBox="0 0 405.46 67.29">
  <defs>
    <style>
      .cls-1, .cls-2 {
        fill: #fff;
      }

      .cls-1, .cls-2, .cls-3, .cls-5, .cls-7 {
        stroke: #666;
      }

      .cls-1, .cls-2, .cls-3, .cls-4, .cls-5, .cls-6, .cls-7 {
        stroke-miterlimit: 10;
      }

      .cls-1 {
        stroke-width: 2px;
      }

      .cls-3 {
        fill: #177cff;
        opacity: 0.5;
      }

      .cls-4 {
        stroke-width: 4px;
        fill: url(#Blue_Sky);
        stroke: url(#linear-gradient);
      }

      .cls-5 {
        fill: aqua;
        opacity: 0;
      }

      .cls-6 {
        fill: url(#linear-gradient-2);
        stroke: url(#linear-gradient-3);
      }

      .cls-7 {
        fill: #f2f2f2;
      }
    </style>
    <linearGradient id="Blue_Sky" data-name="Blue Sky" y1="35.12" x2="59.4" y2="35.12" gradientUnits="userSpaceOnUse">
      <stop offset="0" stop-color="#3ddeed"/>
      <stop offset="1" stop-color="#3ddeed" stop-opacity="0"/>
    </linearGradient>
    <linearGradient id="linear-gradient" y1="35.12" x2="59.4" y2="35.12" gradientUnits="userSpaceOnUse">
      <stop offset="0" stop-color="#fff"/>
      <stop offset="1" stop-color="#353535"/>
    </linearGradient>
    <linearGradient id="linear-gradient-2" x1="273.31" y1="35.94" x2="380.7" y2="35.94" gradientUnits="userSpaceOnUse">
      <stop offset="0" stop-color="#fff"/>
      <stop offset="0.32" stop-color="#fff" stop-opacity="0.99"/>
      <stop offset="0.46" stop-color="#fff" stop-opacity="0.96"/>
      <stop offset="0.56" stop-color="#fff" stop-opacity="0.92"/>
      <stop offset="0.65" stop-color="#fff" stop-opacity="0.85"/>
      <stop offset="0.72" stop-color="#fff" stop-opacity="0.76"/>
      <stop offset="0.79" stop-color="#fff" stop-opacity="0.64"/>
      <stop offset="0.85" stop-color="#fff" stop-opacity="0.51"/>
      <stop offset="0.9" stop-color="#fff" stop-opacity="0.36"/>
      <stop offset="0.95" stop-color="#fff" stop-opacity="0.19"/>
      <stop offset="1" stop-color="#fff" stop-opacity="0"/>
    </linearGradient>
    <linearGradient id="linear-gradient-3" x1="272.81" y1="35.94" x2="381.2" y2="35.94" gradientUnits="userSpaceOnUse">
      <stop offset="0" stop-color="#666"/>
      <stop offset="0.17" stop-color="#767676" stop-opacity="0.9"/>
      <stop offset="0.47" stop-color="#a0a0a0" stop-opacity="0.62"/>
      <stop offset="0.86" stop-color="#e5e5e5" stop-opacity="0.17"/>
      <stop offset="1" stop-color="#fff" stop-opacity="0"/>
    </linearGradient>
  </defs>
  <title>Connect</title>
  <g id="Layer_1" data-name="Layer 1">
    <rect class="cls-1" x="99.11" y="6.3" width="207.08" height="59.28" rx="3" ry="3"/>
    <rect class="cls-2" x="134.84" y="20.21" width="135.61" height="31.46"/>
    <path class="cls-3" d="M61.39,25.29H99.11a0,0,0,0,1,0,0V44.95a0,0,0,0,1,0,0H61.39a2,2,0,0,1-2-2V27.29A2,2,0,0,1,61.39,25.29Z"/>
    <line class="cls-4" y1="35.12" x2="59.4" y2="35.12"/>
    <path class="cls-2" d="M125.8.5h21.05a2,2,0,0,1,2,2V6.3a0,0,0,0,1,0,0H123.8a0,0,0,0,1,0,0V2.5a2,2,0,0,1,2-2Z"/>
    <path class="cls-2" d="M259.06.5h21.05a2,2,0,0,1,2,2V6.3a0,0,0,0,1,0,0H257.06a0,0,0,0,1,0,0V2.5a2,2,0,0,1,2-2Z"/>
    <rect class="cls-5" x="307.48" y="45.46" width="97.48" height="18.12"/>
  </g>
  <g id="Layer_3" data-name="Layer 3">
    <g>
      <path class="cls-6" d="M303.31,5.09H380.7a0,0,0,0,1,0,0v61.7a0,0,0,0,1,0,0H303.31a30,30,0,0,1-30-30v-1.7A30,30,0,0,1,303.31,5.09Z"/>
      <rect class="cls-7" x="285.84" y="20.03" width="31.53" height="31.53" rx="15.77" ry="15.77"/>
    </g>
  </g>
</svg>
