<svg xmlns="http://www.w3.org/2000/svg" xmlns:xlink="http://www.w3.org/1999/xlink" width="404.65" height="67.29" viewBox="0 0 404.65 67.29">
  <defs>
    <style>
      .cls-1, .cls-3 {
        fill: #fff;
      }

      .cls-1, .cls-10, .cls-2, .cls-3, .cls-5, .cls-6, .cls-7, .cls-8 {
        stroke: #666;
      }

      .cls-1, .cls-10, .cls-2, .cls-3, .cls-4, .cls-5, .cls-6, .cls-7, .cls-9 {
        stroke-miterlimit: 10;
      }

      .cls-1, .cls-7, .cls-8 {
        stroke-width: 2px;
      }

      .cls-2 {
        fill: #ec778c;
        opacity: 0.5;
      }

      .cls-4 {
        stroke-width: 4px;
        fill: url(#Blue_Sky);
        stroke: url(#linear-gradient);
      }

      .cls-5 {
        fill: #666;
        stroke-width: 0.5px;
      }

      .cls-6 {
        fill: aqua;
        opacity: 0;
      }

      .cls-7, .cls-8 {
        fill: none;
      }

      .cls-8 {
        stroke-linecap: round;
        stroke-linejoin: bevel;
      }

      .cls-9 {
        fill: url(#linear-gradient-2);
        stroke: url(#linear-gradient-3);
      }

      .cls-10 {
        fill: #f2f2f2;
      }
    </style>
    <linearGradient id="Blue_Sky" data-name="Blue Sky" y1="35.12" x2="59.4" y2="35.12" gradientUnits="userSpaceOnUse">
      <stop offset="0" stop-color="#3ddeed"/>
      <stop offset="1" stop-color="#3ddeed" stop-opacity="0"/>
    </linearGradient>
    <linearGradient id="linear-gradient" y1="35.12" x2="59.4" y2="35.12" gradientUnits="userSpaceOnUse">
      <stop offset="0" stop-color="#fff"/>
      <stop offset="1" stop-color="#353535"/>
    </linearGradient>
    <linearGradient id="linear-gradient-2" x1="273" y1="35.94" x2="380.39" y2="35.94" gradientUnits="userSpaceOnUse">
      <stop offset="0" stop-color="#fff"/>
      <stop offset="0.32" stop-color="#fff" stop-opacity="0.99"/>
      <stop offset="0.46" stop-color="#fff" stop-opacity="0.96"/>
      <stop offset="0.56" stop-color="#fff" stop-opacity="0.92"/>
      <stop offset="0.65" stop-color="#fff" stop-opacity="0.85"/>
      <stop offset="0.72" stop-color="#fff" stop-opacity="0.76"/>
      <stop offset="0.79" stop-color="#fff" stop-opacity="0.64"/>
      <stop offset="0.85" stop-color="#fff" stop-opacity="0.51"/>
      <stop offset="0.9" stop-color="#fff" stop-opacity="0.36"/>
      <stop offset="0.95" stop-color="#fff" stop-opacity="0.19"/>
      <stop offset="1" stop-color="#fff" stop-opacity="0"/>
    </linearGradient>
    <linearGradient id="linear-gradient-3" x1="272.5" y1="35.94" x2="380.89" y2="35.94" gradientUnits="userSpaceOnUse">
      <stop offset="0" stop-color="#666"/>
      <stop offset="0.17" stop-color="#767676" stop-opacity="0.9"/>
      <stop offset="0.47" stop-color="#a0a0a0" stop-opacity="0.62"/>
      <stop offset="0.86" stop-color="#e5e5e5" stop-opacity="0.17"/>
      <stop offset="1" stop-color="#fff" stop-opacity="0"/>
    </linearGradient>
  </defs>
  <title>Key</title>
  <g id="Layer_1" data-name="Layer 1">
    <rect class="cls-1" x="99.11" y="6.3" width="207.08" height="59.28" rx="3" ry="3"/>
    <rect class="cls-2" x="134.84" y="20.21" width="135.61" height="31.46"/>
    <path class="cls-3" d="M61.39,25.29H99.11a0,0,0,0,1,0,0V44.95a0,0,0,0,1,0,0H61.39a2,2,0,0,1-2-2V27.29A2,2,0,0,1,61.39,25.29Z"/>
    <line class="cls-4" y1="35.12" x2="59.4" y2="35.12"/>
    <g>
      <path class="cls-5" d="M263.37,44.37h2.34a2,2,0,0,1,1.43.51,1.71,1.71,0,0,1,.56,1.31,1.66,1.66,0,0,1-.57,1.3,2,2,0,0,1-1.43.5h-1.56v2h-.77Zm.77.62v2.38h1.37a1.55,1.55,0,0,0,1-.31,1.08,1.08,0,0,0,.36-.87,1.12,1.12,0,0,0-.36-.89,1.56,1.56,0,0,0-1-.31Z" transform="translate(-85.03 -19.15)"/>
      <path class="cls-5" d="M273.27,45.8V50h-.7v-.66h-.07a1.28,1.28,0,0,1-.54.54,1.87,1.87,0,0,1-.9.19,1.42,1.42,0,0,1-1.58-1.56V45.8h.74v2.56a1.19,1.19,0,0,0,.25.84,1,1,0,0,0,.8.27,1.3,1.3,0,0,0,.94-.32,1.14,1.14,0,0,0,.32-.86V45.8Z" transform="translate(-85.03 -19.15)"/>
      <path class="cls-5" d="M276.75,49.88a1.48,1.48,0,0,1-.61-.55h-.07V50h-.7V44.12h.74v2.34h.06a1.3,1.3,0,0,1,.59-.54,1.92,1.92,0,0,1,.87-.2,1.8,1.8,0,0,1,1.41.59,2.33,2.33,0,0,1,.53,1.59,2.29,2.29,0,0,1-.53,1.58,1.81,1.81,0,0,1-1.41.6A1.84,1.84,0,0,1,276.75,49.88Zm-.29-3.13a2,2,0,0,0,0,2.3,1.25,1.25,0,0,0,1,.43,1.23,1.23,0,0,0,1-.42,2.1,2.1,0,0,0,0-2.32,1.26,1.26,0,0,0-1-.41A1.24,1.24,0,0,0,276.46,46.75Z" transform="translate(-85.03 -19.15)"/>
      <path class="cls-5" d="M281.43,50V44.12h.74V50Z" transform="translate(-85.03 -19.15)"/>
      <path class="cls-5" d="M284.29,44.84a.44.44,0,0,1,0-.66.52.52,0,0,1,.36-.13.52.52,0,0,1,.37.13.44.44,0,0,1,0,.66.49.49,0,0,1-.37.14A.48.48,0,0,1,284.29,44.84Zm0,5.17V45.8H285V50Z" transform="translate(-85.03 -19.15)"/>
      <path class="cls-5" d="M290.92,47.08h-.74a1,1,0,0,0-.4-.53,1.31,1.31,0,0,0-.8-.22,1.26,1.26,0,0,0-1,.42,1.7,1.7,0,0,0-.37,1.14,1.77,1.77,0,0,0,.37,1.16,1.27,1.27,0,0,0,1,.43,1.46,1.46,0,0,0,.78-.2.91.91,0,0,0,.42-.54h.74a1.47,1.47,0,0,1-.6,1,2.16,2.16,0,0,1-1.33.38,2,2,0,0,1-1.55-.6,2.16,2.16,0,0,1-.58-1.59,2.14,2.14,0,0,1,.58-1.58,2.38,2.38,0,0,1,2.89-.19A1.55,1.55,0,0,1,290.92,47.08Z" transform="translate(-85.03 -19.15)"/>
      <path class="cls-5" d="M296.69,50h-.78V44.37h.78v2.74h.07l2.71-2.74h1L298,46.8,300.67,50h-1l-2.24-2.72-.74.75Z" transform="translate(-85.03 -19.15)"/>
      <path class="cls-5" d="M305.34,48.92h.74a1.44,1.44,0,0,1-.67.85,2.43,2.43,0,0,1-1.28.31,2,2,0,0,1-1.52-.59,2.49,2.49,0,0,1,0-3.17,2,2,0,0,1,1.52-.6,1.94,1.94,0,0,1,1.48.57,2.21,2.21,0,0,1,.53,1.55v.26h-3.33v0a1.48,1.48,0,0,0,.39,1,1.3,1.3,0,0,0,.95.37,1.67,1.67,0,0,0,.75-.15A1,1,0,0,0,305.34,48.92Zm-2.13-2.27a1.35,1.35,0,0,0-.4.9h2.56a1.27,1.27,0,0,0-.36-.9,1.21,1.21,0,0,0-.89-.34A1.3,1.3,0,0,0,303.21,46.65Z" transform="translate(-85.03 -19.15)"/>
      <path class="cls-5" d="M308.25,51.53H308v-.58l.15,0h.16a.81.81,0,0,0,.51-.15,1.29,1.29,0,0,0,.34-.54l.08-.25-1.71-4.21h.8l1.27,3.46h.07L311,45.8h.78l-1.81,4.46a2.26,2.26,0,0,1-.63,1,1.49,1.49,0,0,1-.95.27Z" transform="translate(-85.03 -19.15)"/>
    </g>
    <path class="cls-3" d="M125.8.5h21.05a2,2,0,0,1,2,2V6.3a0,0,0,0,1,0,0H123.8a0,0,0,0,1,0,0V2.5A2,2,0,0,1,125.8.5Z"/>
    <path class="cls-3" d="M259.06.5h21.05a2,2,0,0,1,2,2V6.3a0,0,0,0,1,0,0H257.06a0,0,0,0,1,0,0V2.5a2,2,0,0,1,2-2Z"/>
    <g>
      <path class="cls-5" d="M245.34,60.3H242.2v2.92h3.5v.87h-4.55V56h4.37v.88H242.2v2.55h3.14Z" transform="translate(-85.03 -19.15)"/>
      <path class="cls-5" d="M254,60c0,2.78-1.69,4.26-3.75,4.26s-3.63-1.66-3.63-4.11,1.59-4.24,3.75-4.24S254,57.57,254,60Zm-6.27.13c0,1.73.94,3.27,2.58,3.27s2.59-1.52,2.59-3.35c0-1.61-.84-3.29-2.58-3.29S247.69,58.33,247.69,60.1Z" transform="translate(-85.03 -19.15)"/>
      <path class="cls-5" d="M255.18,62.82a3.68,3.68,0,0,0,1.87.53c1.07,0,1.69-.56,1.69-1.38s-.43-1.19-1.52-1.61c-1.32-.46-2.14-1.15-2.14-2.29a2.33,2.33,0,0,1,2.62-2.19,3.73,3.73,0,0,1,1.79.39l-.29.86a3.19,3.19,0,0,0-1.54-.39c-1.1,0-1.52.66-1.52,1.21,0,.76.49,1.13,1.61,1.56,1.36.53,2.06,1.19,2.06,2.38s-.92,2.32-2.83,2.32a4.14,4.14,0,0,1-2.06-.51Z" transform="translate(-85.03 -19.15)"/>
      <path class="cls-5" d="M265.93,56.3V57l-3.39,7.1h-1.1l3.39-6.89v0H261V56.3Z" transform="translate(-85.03 -19.15)"/>
      <path class="cls-5" d="M267.85,58.29l.83,1.25c.22.32.4.62.59.94h0l.58-1,.81-1.23h1.14l-2,2.81,2,3h-1.2l-.85-1.3c-.22-.34-.42-.66-.62-1h0c-.2.35-.4.66-.62,1l-.84,1.3h-1.16l2.06-3-2-2.84Z" transform="translate(-85.03 -19.15)"/>
      <path class="cls-5" d="M273.41,58.29l.83,1.25c.21.32.39.62.58.94h0c.19-.34.38-.64.58-1l.81-1.23h1.14l-2,2.81,2,3h-1.2l-.85-1.3c-.23-.34-.42-.66-.62-1h0c-.19.35-.39.66-.61,1l-.84,1.3h-1.16l2.06-3-2-2.84Z" transform="translate(-85.03 -19.15)"/>
      <path class="cls-5" d="M279,58.29l.83,1.25c.22.32.4.62.59.94h0c.19-.34.38-.64.57-1l.82-1.23H283l-2,2.81,2,3h-1.2l-.85-1.3c-.23-.34-.42-.66-.63-1h0c-.19.35-.4.66-.61,1l-.84,1.3h-1.17l2.07-3-2-2.84Z" transform="translate(-85.03 -19.15)"/>
      <path class="cls-5" d="M284.52,58.29l.83,1.25c.21.32.39.62.58.94h0c.19-.34.38-.64.58-1l.81-1.23h1.14l-2,2.81,2,3h-1.2l-.85-1.3c-.23-.34-.42-.66-.62-1h0c-.19.35-.39.66-.61,1l-.84,1.3h-1.16l2.06-3-2-2.84Z" transform="translate(-85.03 -19.15)"/>
      <path class="cls-5" d="M290.08,58.29l.82,1.25c.22.32.4.62.59.94h0c.19-.34.38-.64.57-1l.82-1.23h1.14l-2,2.81,2,3h-1.2l-.85-1.3c-.23-.34-.42-.66-.63-1h0c-.19.35-.4.66-.61,1l-.84,1.3H288.8l2.07-3-2-2.84Z" transform="translate(-85.03 -19.15)"/>
      <path class="cls-5" d="M295.63,58.29l.83,1.25c.22.32.4.62.59.94h0l.58-1,.81-1.23h1.14l-2,2.81,2,3h-1.2l-.85-1.3c-.23-.34-.42-.66-.62-1h0c-.2.35-.4.66-.62,1l-.84,1.3h-1.16l2.06-3-2-2.84Z" transform="translate(-85.03 -19.15)"/>
      <path class="cls-5" d="M301.19,58.29l.82,1.25c.22.32.4.62.59.94h0c.19-.34.38-.64.57-1l.82-1.23h1.14l-2,2.81,2,3H304l-.85-1.3c-.23-.34-.42-.66-.63-1h0c-.19.35-.4.66-.61,1l-.84,1.3h-1.16l2.06-3-2-2.84Z" transform="translate(-85.03 -19.15)"/>
      <path class="cls-5" d="M306.74,58.29l.83,1.25c.22.32.4.62.59.94h0c.19-.34.38-.64.57-1l.82-1.23h1.14l-2,2.81,2,3h-1.2l-.85-1.3c-.23-.34-.42-.66-.63-1h0c-.19.35-.4.66-.61,1l-.84,1.3h-1.17l2.07-3-2-2.84Z" transform="translate(-85.03 -19.15)"/>
      <path class="cls-5" d="M312.3,58.29l.83,1.25c.21.32.39.62.58.94h0c.19-.34.38-.64.58-1l.81-1.23h1.14l-2,2.81,2,3h-1.2l-.85-1.3c-.23-.34-.42-.66-.62-1h0c-.19.35-.39.66-.61,1l-.84,1.3H311l2.06-3-2-2.84Z" transform="translate(-85.03 -19.15)"/>
      <path class="cls-5" d="M317.86,58.29l.82,1.25c.22.32.4.62.59.94h0c.19-.34.38-.64.57-1l.82-1.23h1.14l-2,2.81,2,3h-1.2l-.85-1.3c-.23-.34-.42-.66-.63-1h0c-.19.35-.4.66-.61,1l-.84,1.3h-1.17l2.07-3-2-2.84Z" transform="translate(-85.03 -19.15)"/>
      <path class="cls-5" d="M323.41,58.29l.83,1.25c.22.32.4.62.59.94h0l.58-1,.81-1.23h1.14l-2,2.81,2,3h-1.2l-.85-1.3c-.23-.34-.42-.66-.62-1h0c-.2.35-.4.66-.62,1l-.84,1.3h-1.16l2.06-3-2-2.84Z" transform="translate(-85.03 -19.15)"/>
      <path class="cls-5" d="M328.22,63.47a.72.72,0,0,1,.72-.76.76.76,0,1,1-.72.76Z" transform="translate(-85.03 -19.15)"/>
      <path class="cls-5" d="M330.71,63.47a.72.72,0,0,1,.72-.76.76.76,0,0,1,0,1.52A.71.71,0,0,1,330.71,63.47Z" transform="translate(-85.03 -19.15)"/>
      <path class="cls-5" d="M333.19,63.47a.72.72,0,0,1,.72-.76.76.76,0,1,1-.72.76Z" transform="translate(-85.03 -19.15)"/>
    </g>
    <polyline class="cls-6" points="404.65 65.58 307.18 65.58 307.18 47.46 404.65 47.46"/>
    <g>
      <line class="cls-7" x1="140.47" y1="33.63" x2="145.39" y2="38.25"/>
      <line class="cls-7" x1="145.17" y1="33.32" x2="140.64" y2="38.27"/>
    </g>
    <g>
      <line class="cls-8" x1="259.38" y1="34.99" x2="262.03" y2="38.64"/>
      <line class="cls-8" x1="265.93" y1="33.23" x2="262.03" y2="38.64"/>
    </g>
  </g>
  <g id="Layer_3" data-name="Layer 3">
    <g>
      <path class="cls-9" d="M303,5.09h77.39a0,0,0,0,1,0,0v61.7a0,0,0,0,1,0,0H303a30,30,0,0,1-30-30v-1.7a30,30,0,0,1,30-30Z"/>
      <rect class="cls-10" x="285.53" y="20.03" width="31.53" height="31.53" rx="15.77" ry="15.77"/>
    </g>
  </g>
</svg>
