<svg id="Layer_1" data-name="Layer 1" xmlns="http://www.w3.org/2000/svg" xmlns:xlink="http://www.w3.org/1999/xlink" width="405.3" height="66.58" viewBox="0 0 405.3 66.58">
  <defs>
    <style>
      .cls-1, .cls-3 {
        fill: #fff;
      }

      .cls-1, .cls-2, .cls-3, .cls-5, .cls-6, .cls-7, .cls-8 {
        stroke: #666;
      }

      .cls-1, .cls-2, .cls-3, .cls-4, .cls-5, .cls-6, .cls-7 {
        stroke-miterlimit: 10;
      }

      .cls-1, .cls-7, .cls-8 {
        stroke-width: 2px;
      }

      .cls-2, .cls-6 {
        fill: aqua;
      }

      .cls-4 {
        stroke-width: 4px;
        fill: url(#Blue_Sky);
        stroke: url(#linear-gradient);
      }

      .cls-5 {
        fill: #666;
        stroke-width: 0.5px;
      }

      .cls-6 {
        opacity: 0;
      }

      .cls-7, .cls-8 {
        fill: none;
      }

      .cls-8 {
        stroke-linecap: round;
        stroke-linejoin: bevel;
      }
    </style>
    <linearGradient id="Blue_Sky" data-name="Blue Sky" y1="35.12" x2="59.4" y2="35.12" gradientUnits="userSpaceOnUse">
      <stop offset="0" stop-color="#3ddeed"/>
      <stop offset="1" stop-color="#3ddeed" stop-opacity="0"/>
    </linearGradient>
    <linearGradient id="linear-gradient" y1="35.12" x2="59.4" y2="35.12" gradientUnits="userSpaceOnUse">
      <stop offset="0" stop-color="#fff"/>
      <stop offset="1" stop-color="#353535"/>
    </linearGradient>
  </defs>
  <title>Verify</title>
  <g>
    <rect class="cls-1" x="99.11" y="6.3" width="207.08" height="59.28" rx="3" ry="3"/>
    <rect class="cls-2" x="134.84" y="20.21" width="135.61" height="31.46"/>
    <path class="cls-3" d="M61.39,25.29H99.11a0,0,0,0,1,0,0V44.95a0,0,0,0,1,0,0H61.39a2,2,0,0,1-2-2V27.29A2,2,0,0,1,61.39,25.29Z"/>
    <line class="cls-4" y1="35.12" x2="59.4" y2="35.12"/>
    <g>
      <path class="cls-5" d="M225.72,241.9h2.34a2,2,0,0,1,1.44.51,1.71,1.71,0,0,1,.55,1.32,1.67,1.67,0,0,1-.56,1.29,2.05,2.05,0,0,1-1.43.51H226.5v2h-.78Zm.78.63v2.37h1.36a1.58,1.58,0,0,0,1-.3,1.1,1.1,0,0,0,.36-.87,1.12,1.12,0,0,0-.35-.89,1.54,1.54,0,0,0-1-.31Z" transform="translate(-47.39 -216.68)"/>
      <path class="cls-5" d="M235.62,243.33v4.21h-.7v-.66h-.07a1.13,1.13,0,0,1-.54.54,1.86,1.86,0,0,1-.89.19,1.42,1.42,0,0,1-1.59-1.55v-2.73h.74v2.56a1.24,1.24,0,0,0,.25.84,1,1,0,0,0,.8.27,1.3,1.3,0,0,0,.94-.31,1.15,1.15,0,0,0,.33-.87v-2.49Z" transform="translate(-47.39 -216.68)"/>
      <path class="cls-5" d="M239.11,247.42a1.51,1.51,0,0,1-.62-.55h-.07v.67h-.7v-5.88h.74V244h.07a1.39,1.39,0,0,1,.58-.54,1.92,1.92,0,0,1,.87-.19,1.77,1.77,0,0,1,1.41.59,2.25,2.25,0,0,1,.53,1.59,2.27,2.27,0,0,1-.53,1.58,1.77,1.77,0,0,1-1.41.59A1.92,1.92,0,0,1,239.11,247.42Zm-.3-3.14a2,2,0,0,0,0,2.31,1.26,1.26,0,0,0,1,.42,1.23,1.23,0,0,0,1-.42,2,2,0,0,0,0-2.31,1.23,1.23,0,0,0-1-.42A1.26,1.26,0,0,0,238.81,244.28Z" transform="translate(-47.39 -216.68)"/>
      <path class="cls-5" d="M243.79,247.54v-5.88h.73v5.88Z" transform="translate(-47.39 -216.68)"/>
      <path class="cls-5" d="M246.64,242.38a.44.44,0,0,1,0-.66.53.53,0,0,1,.37-.14.52.52,0,0,1,.36.14.44.44,0,0,1,0,.66.52.52,0,0,1-.36.14A.53.53,0,0,1,246.64,242.38Zm0,5.16v-4.21h.74v4.21Z" transform="translate(-47.39 -216.68)"/>
      <path class="cls-5" d="M253.28,244.62h-.75a1,1,0,0,0-.39-.54,1.38,1.38,0,0,0-.8-.22,1.23,1.23,0,0,0-1,.42,1.65,1.65,0,0,0-.37,1.14,1.7,1.7,0,0,0,.37,1.16,1.21,1.21,0,0,0,1,.43,1.46,1.46,0,0,0,.78-.19,1,1,0,0,0,.41-.55h.75a1.5,1.5,0,0,1-.6,1,2.13,2.13,0,0,1-1.34.38,2,2,0,0,1-1.55-.59,2.23,2.23,0,0,1-.58-1.6,2.15,2.15,0,0,1,.58-1.57,2,2,0,0,1,1.55-.59,2.06,2.06,0,0,1,1.34.4A1.51,1.51,0,0,1,253.28,244.62Z" transform="translate(-47.39 -216.68)"/>
      <path class="cls-5" d="M259,247.54h-.77V241.9H259v2.74h.07l2.72-2.74h1l-2.48,2.44,2.7,3.2h-1l-2.24-2.71-.74.74Z" transform="translate(-47.39 -216.68)"/>
      <path class="cls-5" d="M267.7,246.45h.74a1.46,1.46,0,0,1-.68.85,2.39,2.39,0,0,1-1.27.31A2,2,0,0,1,265,247a2.18,2.18,0,0,1-.56-1.59,2.25,2.25,0,0,1,.56-1.59,2,2,0,0,1,1.53-.59,1.92,1.92,0,0,1,1.47.56,2.17,2.17,0,0,1,.54,1.55v.26h-3.33v0a1.44,1.44,0,0,0,.39,1,1.22,1.22,0,0,0,.94.37,1.67,1.67,0,0,0,.75-.15A.92.92,0,0,0,267.7,246.45Zm-2.13-2.26a1.35,1.35,0,0,0-.4.9h2.55a1.31,1.31,0,0,0-.35-.9,1.21,1.21,0,0,0-.89-.34A1.24,1.24,0,0,0,265.57,244.19Z" transform="translate(-47.39 -216.68)"/>
      <path class="cls-5" d="M270.61,249.06h-.23v-.57h.31a.82.82,0,0,0,.51-.16,1.22,1.22,0,0,0,.34-.54l.09-.25-1.72-4.21h.8l1.27,3.46h.07l1.27-3.46h.79l-1.81,4.47a2.42,2.42,0,0,1-.64,1,1.47,1.47,0,0,1-1,.26Z" transform="translate(-47.39 -216.68)"/>
    </g>
    <path class="cls-3" d="M125.8.5h21.05a2,2,0,0,1,2,2V6.3a0,0,0,0,1,0,0H123.8a0,0,0,0,1,0,0V2.5A2,2,0,0,1,125.8.5Z"/>
    <path class="cls-3" d="M259.06.5h21.05a2,2,0,0,1,2,2V6.3a0,0,0,0,1,0,0H257.06a0,0,0,0,1,0,0V2.5a2,2,0,0,1,2-2Z"/>
    <g>
      <path class="cls-5" d="M207.69,257.84h-3.14v2.91h3.5v.88h-4.54v-8.09h4.36v.88h-3.32V257h3.14Z" transform="translate(-47.39 -216.68)"/>
      <path class="cls-5" d="M216.32,257.5c0,2.79-1.69,4.26-3.76,4.26s-3.63-1.65-3.63-4.1,1.6-4.25,3.75-4.25S216.32,255.1,216.32,257.5Zm-6.27.13c0,1.73.93,3.28,2.57,3.28s2.59-1.52,2.59-3.36c0-1.61-.83-3.29-2.57-3.29S210.05,255.86,210.05,257.63Z" transform="translate(-47.39 -216.68)"/>
      <path class="cls-5" d="M217.53,260.36a3.82,3.82,0,0,0,1.88.52c1.06,0,1.69-.56,1.69-1.38s-.44-1.18-1.53-1.6c-1.32-.47-2.13-1.15-2.13-2.29a2.33,2.33,0,0,1,2.61-2.2,3.6,3.6,0,0,1,1.79.4l-.29.85a3.24,3.24,0,0,0-1.53-.38c-1.11,0-1.53.66-1.53,1.21,0,.75.5,1.13,1.61,1.56,1.37.52,2.06,1.18,2.06,2.37s-.92,2.33-2.83,2.33a4.13,4.13,0,0,1-2.06-.52Z" transform="translate(-47.39 -216.68)"/>
      <path class="cls-5" d="M228.28,253.83v.7l-3.39,7.1H223.8l3.38-6.9v0h-3.81v-.88Z" transform="translate(-47.39 -216.68)"/>
      <path class="cls-5" d="M230.21,255.82l.82,1.25c.22.32.4.62.59.95h0c.19-.35.38-.65.57-1l.82-1.24h1.14l-2,2.81,2,3h-1.2l-.85-1.31c-.23-.33-.42-.66-.63-1h0c-.19.35-.4.66-.61,1l-.84,1.31h-1.17l2.07-3-2-2.85Z" transform="translate(-47.39 -216.68)"/>
      <path class="cls-5" d="M235.76,255.82l.83,1.25c.22.32.4.62.59.95h0c.2-.35.39-.65.58-1l.81-1.24h1.14l-2,2.81,2,3h-1.2l-.85-1.31c-.23-.33-.42-.66-.62-1h0c-.2.35-.4.66-.62,1l-.84,1.31h-1.16l2.06-3-2-2.85Z" transform="translate(-47.39 -216.68)"/>
      <path class="cls-5" d="M241.32,255.82l.82,1.25c.22.32.4.62.59.95h0c.19-.35.38-.65.57-1l.82-1.24h1.14l-2,2.81,2,3h-1.2l-.85-1.31c-.23-.33-.42-.66-.63-1h0c-.19.35-.4.66-.61,1l-.84,1.31h-1.16l2.06-3-2-2.85Z" transform="translate(-47.39 -216.68)"/>
      <path class="cls-5" d="M246.87,255.82l.83,1.25c.22.32.4.62.59.95h0c.2-.35.39-.65.58-1l.82-1.24h1.13l-2,2.81,2,3h-1.2l-.86-1.31c-.22-.33-.42-.66-.62-1h0c-.2.35-.4.66-.62,1l-.83,1.31H245.6l2.07-3-2-2.85Z" transform="translate(-47.39 -216.68)"/>
      <path class="cls-5" d="M252.43,255.82l.83,1.25c.21.32.39.62.58.95h0c.19-.35.38-.65.58-1l.81-1.24h1.14l-2,2.81,2,3h-1.2l-.85-1.31c-.23-.33-.42-.66-.62-1h0c-.19.35-.39.66-.61,1l-.84,1.31h-1.16l2.06-3-2-2.85Z" transform="translate(-47.39 -216.68)"/>
      <path class="cls-5" d="M258,255.82l.82,1.25c.22.32.4.62.59.95h0c.19-.35.38-.65.57-1l.82-1.24H262l-2,2.81,2,3h-1.2l-.85-1.31c-.23-.33-.42-.66-.63-1h0c-.19.35-.4.66-.61,1l-.84,1.31h-1.17l2.07-3-2-2.85Z" transform="translate(-47.39 -216.68)"/>
      <path class="cls-5" d="M263.54,255.82l.83,1.25c.21.32.39.62.59.95h0c.19-.35.39-.65.58-1l.81-1.24h1.14l-2,2.81,2,3h-1.2l-.85-1.31c-.23-.33-.42-.66-.62-1h0c-.19.35-.39.66-.61,1l-.84,1.31h-1.16l2.06-3-2-2.85Z" transform="translate(-47.39 -216.68)"/>
      <path class="cls-5" d="M269.1,255.82l.82,1.25c.22.32.4.62.59.95h0c.19-.35.38-.65.57-1l.82-1.24h1.14l-2,2.81,2,3h-1.2l-.85-1.31c-.23-.33-.42-.66-.63-1h0c-.19.35-.4.66-.61,1l-.84,1.31h-1.16l2.06-3-2-2.85Z" transform="translate(-47.39 -216.68)"/>
      <path class="cls-5" d="M274.65,255.82l.83,1.25c.22.32.4.62.59.95h0c.2-.35.39-.65.58-1l.82-1.24h1.13l-2,2.81,2,3h-1.2l-.86-1.31c-.22-.33-.42-.66-.62-1h0c-.2.35-.4.66-.62,1l-.83,1.31h-1.17l2.07-3-2-2.85Z" transform="translate(-47.39 -216.68)"/>
      <path class="cls-5" d="M280.21,255.82l.83,1.25c.21.32.39.62.58.95h0c.19-.35.38-.65.58-1l.81-1.24h1.14l-2,2.81,2,3h-1.2l-.85-1.31c-.23-.33-.42-.66-.62-1h0c-.19.35-.39.66-.61,1l-.84,1.31h-1.16l2.06-3-2-2.85Z" transform="translate(-47.39 -216.68)"/>
      <path class="cls-5" d="M285.77,255.82l.82,1.25c.22.32.4.62.59.95h0c.19-.35.38-.65.57-1l.82-1.24h1.14l-2,2.81,2,3h-1.2l-.85-1.31c-.23-.33-.42-.66-.63-1h0c-.19.35-.4.66-.61,1l-.84,1.31h-1.17l2.07-3-2-2.85Z" transform="translate(-47.39 -216.68)"/>
      <path class="cls-5" d="M290.58,261a.71.71,0,0,1,.72-.75.76.76,0,0,1,0,1.51A.71.71,0,0,1,290.58,261Z" transform="translate(-47.39 -216.68)"/>
      <path class="cls-5" d="M293.06,261a.71.71,0,0,1,.72-.75.76.76,0,0,1,0,1.51A.71.71,0,0,1,293.06,261Z" transform="translate(-47.39 -216.68)"/>
      <path class="cls-5" d="M295.55,261a.71.71,0,0,1,.72-.75.76.76,0,1,1-.72.75Z" transform="translate(-47.39 -216.68)"/>
    </g>
    <polyline class="cls-6" points="405.3 65.58 307.82 65.58 307.82 47.46 405.3 47.46"/>
    <g>
      <line class="cls-7" x1="140.47" y1="33.63" x2="145.39" y2="38.25"/>
      <line class="cls-7" x1="145.17" y1="33.32" x2="140.64" y2="38.27"/>
    </g>
    <g>
      <line class="cls-8" x1="259.38" y1="34.99" x2="262.03" y2="38.64"/>
      <line class="cls-8" x1="265.93" y1="33.23" x2="262.03" y2="38.64"/>
    </g>
  </g>
</svg>
