<svg id="Layer_1" data-name="Layer 1" xmlns="http://www.w3.org/2000/svg" xmlns:xlink="http://www.w3.org/1999/xlink" width="405.8" height="66.58" viewBox="0 0 405.8 66.58">
  <defs>
    <style>
      .cls-1, .cls-3 {
        fill: #fff;
      }

      .cls-1, .cls-2, .cls-3, .cls-5, .cls-6, .cls-7 {
        stroke: #666;
      }

      .cls-1, .cls-2, .cls-3, .cls-4, .cls-5, .cls-6, .cls-7 {
        stroke-miterlimit: 10;
      }

      .cls-1 {
        stroke-width: 2px;
      }

      .cls-2, .cls-7 {
        fill: aqua;
      }

      .cls-4 {
        stroke-width: 4px;
        fill: url(#Blue_Sky);
        stroke: url(#linear-gradient);
      }

      .cls-5, .cls-6 {
        fill: #666;
      }

      .cls-5 {
        stroke-width: 0.75px;
      }

      .cls-6 {
        stroke-width: 0.5px;
      }

      .cls-7 {
        opacity: 0;
      }
    </style>
    <linearGradient id="Blue_Sky" data-name="Blue Sky" y1="35.12" x2="59.4" y2="35.12" gradientUnits="userSpaceOnUse">
      <stop offset="0" stop-color="#3ddeed"/>
      <stop offset="1" stop-color="#3ddeed" stop-opacity="0"/>
    </linearGradient>
    <linearGradient id="linear-gradient" y1="35.12" x2="59.4" y2="35.12" gradientUnits="userSpaceOnUse">
      <stop offset="0" stop-color="#fff"/>
      <stop offset="1" stop-color="#353535"/>
    </linearGradient>
  </defs>
  <title>PIN_LEGACY</title>
  <g>
    <rect class="cls-1" x="99.11" y="6.3" width="207.08" height="59.28" rx="3" ry="3"/>
    <rect class="cls-2" x="134.84" y="20.21" width="135.61" height="31.46"/>
    <path class="cls-3" d="M61.39,25.29H99.11a0,0,0,0,1,0,0V44.95a0,0,0,0,1,0,0H61.39a2,2,0,0,1-2-2V27.29A2,2,0,0,1,61.39,25.29Z"/>
    <line class="cls-4" y1="35.12" x2="59.4" y2="35.12"/>
    <g>
      <path class="cls-5" d="M269.07,240.62h2.34a2,2,0,0,1,1.43.51,1.7,1.7,0,0,1,.55,1.31,1.65,1.65,0,0,1-.56,1.3,2,2,0,0,1-1.43.5h-1.56v2h-.77Zm.77.62v2.38h1.37a1.5,1.5,0,0,0,1-.31,1.06,1.06,0,0,0,.37-.87,1.12,1.12,0,0,0-.36-.89,1.56,1.56,0,0,0-1-.31Z" transform="translate(-81.78 -216.74)"/>
      <path class="cls-5" d="M276.09,246.26h-.77v-5.64h.77Z" transform="translate(-81.78 -216.74)"/>
      <path class="cls-5" d="M279.1,246.26h-.77v-5.64h.75l3.37,4.39h.07v-4.39h.76v5.64h-.75l-3.37-4.38h-.06Z" transform="translate(-81.78 -216.74)"/>
      <path class="cls-5" d="M292.4,243.33h-.74a1.06,1.06,0,0,0-.4-.53,1.31,1.31,0,0,0-.8-.22,1.26,1.26,0,0,0-1,.42,1.69,1.69,0,0,0-.37,1.13,1.73,1.73,0,0,0,.37,1.16,1.24,1.24,0,0,0,1,.43,1.46,1.46,0,0,0,.78-.19.91.91,0,0,0,.42-.54h.74a1.47,1.47,0,0,1-.6,1,2.16,2.16,0,0,1-1.33.38,2,2,0,0,1-1.55-.6,2.47,2.47,0,0,1,0-3.17,2.4,2.4,0,0,1,2.9-.19A1.55,1.55,0,0,1,292.4,243.33Z" transform="translate(-81.78 -216.74)"/>
      <path class="cls-5" d="M294.5,245.75a2.5,2.5,0,0,1,0-3.2,2.39,2.39,0,0,1,3.12,0,2.53,2.53,0,0,1,0,3.2,2.39,2.39,0,0,1-3.12,0Zm2.57-.44a1.71,1.71,0,0,0,.36-1.16,1.7,1.7,0,0,0-.36-1.16,1.24,1.24,0,0,0-1-.41,1.26,1.26,0,0,0-1,.41,1.75,1.75,0,0,0-.35,1.16,1.76,1.76,0,0,0,.35,1.16,1.26,1.26,0,0,0,1,.41A1.24,1.24,0,0,0,297.07,245.31Z" transform="translate(-81.78 -216.74)"/>
      <path class="cls-5" d="M300.31,245.74a2.65,2.65,0,0,1,0-3.18,1.84,1.84,0,0,1,1.42-.59,1.92,1.92,0,0,1,.87.2,1.38,1.38,0,0,1,.58.54h.07v-2.34H304v5.89h-.7v-.68h-.07a1.48,1.48,0,0,1-.61.55,1.92,1.92,0,0,1-.87.2A1.83,1.83,0,0,1,300.31,245.74Zm.6-2.74a1.7,1.7,0,0,0-.36,1.15,1.73,1.73,0,0,0,.36,1.16,1.25,1.25,0,0,0,1,.41,1.27,1.27,0,0,0,1-.42,1.7,1.7,0,0,0,.36-1.15,1.74,1.74,0,0,0-.36-1.15,1.27,1.27,0,0,0-1-.42A1.23,1.23,0,0,0,300.91,243Z" transform="translate(-81.78 -216.74)"/>
      <path class="cls-5" d="M309.15,245.17h.74a1.46,1.46,0,0,1-.68.85,2.39,2.39,0,0,1-1.27.31,2,2,0,0,1-1.53-.59,2.22,2.22,0,0,1-.56-1.59,2.17,2.17,0,0,1,.57-1.58,2,2,0,0,1,1.52-.6,1.93,1.93,0,0,1,1.47.57,2.15,2.15,0,0,1,.54,1.55v.26h-3.33v0a1.48,1.48,0,0,0,.39,1,1.26,1.26,0,0,0,.94.37,1.67,1.67,0,0,0,.75-.15A1,1,0,0,0,309.15,245.17ZM307,242.9a1.35,1.35,0,0,0-.4.9h2.55a1.31,1.31,0,0,0-.35-.9,1.25,1.25,0,0,0-.89-.34A1.28,1.28,0,0,0,307,242.9Z" transform="translate(-81.78 -216.74)"/>
    </g>
    <path class="cls-3" d="M125.8.5h21.05a2,2,0,0,1,2,2V6.3a0,0,0,0,1,0,0H123.8a0,0,0,0,1,0,0V2.5a2,2,0,0,1,2-2Z"/>
    <path class="cls-3" d="M259.06.5h21.05a2,2,0,0,1,2,2V6.3a0,0,0,0,1,0,0H257.06a0,0,0,0,1,0,0V2.5a2,2,0,0,1,2-2Z"/>
    <g>
      <path class="cls-6" d="M254.72,260.94a4.43,4.43,0,0,0,.85,0,2.92,2.92,0,0,0,1.64-.75,3.49,3.49,0,0,0,1-2.08h0a2.34,2.34,0,0,1-4.14-1.54,2.68,2.68,0,0,1,2.67-2.78c1.59,0,2.57,1.3,2.57,3.29A4.91,4.91,0,0,1,258,260.7a3.85,3.85,0,0,1-2.27,1,5,5,0,0,1-1,.06Zm.39-4.49a1.5,1.5,0,0,0,1.5,1.66,1.75,1.75,0,0,0,1.53-.82.66.66,0,0,0,.1-.38c0-1.33-.49-2.35-1.6-2.35C255.74,254.56,255.11,255.35,255.11,256.45Z" transform="translate(-81.78 -216.74)"/>
      <path class="cls-6" d="M268.27,262.58v.6h-6v-.6Z" transform="translate(-81.78 -216.74)"/>
      <path class="cls-6" d="M276.81,262.58v.6h-6v-.6Z" transform="translate(-81.78 -216.74)"/>
      <path class="cls-6" d="M285.36,262.58v.6h-6v-.6Z" transform="translate(-81.78 -216.74)"/>
      <path class="cls-6" d="M293.9,262.58v.6h-6v-.6Z" transform="translate(-81.78 -216.74)"/>
      <path class="cls-6" d="M302.44,262.58v.6h-6v-.6Z" transform="translate(-81.78 -216.74)"/>
      <path class="cls-6" d="M311,262.58v.6h-6v-.6Z" transform="translate(-81.78 -216.74)"/>
      <path class="cls-6" d="M319.53,262.58v.6h-6v-.6Z" transform="translate(-81.78 -216.74)"/>
    </g>
    <rect class="cls-7" x="307.82" y="47.46" width="97.48" height="18.12"/>
  </g>
</svg>
